<mxfile host="Electron" modified="2024-04-16T12:50:58.800Z" agent="Mozilla/5.0 (Windows NT 10.0; Win64; x64) AppleWebKit/537.36 (KHTML, like Gecko) draw.io/24.1.0 Chrome/120.0.6099.109 Electron/28.1.0 Safari/537.36" etag="a39rz1xw8DDuTADKHC3S" version="24.1.0" type="device">
  <diagram name="Page-1" id="dxWSb39sKn-1Gvx3rgT7">
    <mxGraphModel dx="743" dy="645" grid="1" gridSize="10" guides="1" tooltips="1" connect="1" arrows="1" fold="1" page="1" pageScale="1" pageWidth="827" pageHeight="1169" math="0" shadow="0">
      <root>
        <mxCell id="0" />
        <mxCell id="1" parent="0" />
        <mxCell id="CT8DA7uSwMBzFHw84zYH-1" style="edgeStyle=orthogonalEdgeStyle;rounded=0;orthogonalLoop=1;jettySize=auto;html=1;entryX=0.099;entryY=0.394;entryDx=0;entryDy=0;entryPerimeter=0;strokeWidth=2;strokeColor=default;align=center;verticalAlign=middle;fontFamily=Helvetica;fontSize=11;fontColor=default;labelBackgroundColor=default;endArrow=blockThin;endFill=1;" edge="1" parent="1" target="CT8DA7uSwMBzFHw84zYH-2">
          <mxGeometry relative="1" as="geometry">
            <mxPoint x="70" y="69.38000000000011" as="sourcePoint" />
            <Array as="points">
              <mxPoint x="90" y="69.38000000000011" />
            </Array>
          </mxGeometry>
        </mxCell>
        <mxCell id="CT8DA7uSwMBzFHw84zYH-2" value="" style="shape=mxgraph.pid.vessels.jacketed_mixing_vessel;html=1;pointerEvents=1;align=center;verticalLabelPosition=bottom;verticalAlign=middle;dashed=0;strokeWidth=2;rounded=0;strokeColor=default;fontFamily=Helvetica;fontSize=11;fontColor=default;labelBackgroundColor=default;" vertex="1" parent="1">
          <mxGeometry x="100.19333333333327" y="20.002500000000055" width="71.87619047619044" height="125.0625" as="geometry" />
        </mxCell>
        <mxCell id="CT8DA7uSwMBzFHw84zYH-3" style="edgeStyle=orthogonalEdgeStyle;rounded=0;orthogonalLoop=1;jettySize=auto;html=1;exitX=0.9;exitY=0.399;exitDx=0;exitDy=0;exitPerimeter=0;strokeWidth=2;strokeColor=default;align=center;verticalAlign=middle;fontFamily=Helvetica;fontSize=11;fontColor=default;labelBackgroundColor=default;endArrow=blockThin;endFill=1;" edge="1" parent="1" source="CT8DA7uSwMBzFHw84zYH-2">
          <mxGeometry relative="1" as="geometry">
            <Array as="points" />
            <mxPoint x="164.93043809523806" y="96.84587499999998" as="sourcePoint" />
            <mxPoint x="200" y="69" as="targetPoint" />
          </mxGeometry>
        </mxCell>
        <mxCell id="CT8DA7uSwMBzFHw84zYH-4" style="edgeStyle=orthogonalEdgeStyle;rounded=0;orthogonalLoop=1;jettySize=auto;html=1;entryX=0.099;entryY=0.394;entryDx=0;entryDy=0;entryPerimeter=0;strokeWidth=2;strokeColor=default;align=center;verticalAlign=middle;fontFamily=Helvetica;fontSize=11;fontColor=default;labelBackgroundColor=default;endArrow=blockThin;endFill=1;" edge="1" parent="1">
          <mxGeometry relative="1" as="geometry">
            <mxPoint x="70" y="110" as="sourcePoint" />
            <Array as="points">
              <mxPoint x="83" y="110.38000000000011" />
            </Array>
            <mxPoint x="100" y="110" as="targetPoint" />
          </mxGeometry>
        </mxCell>
        <mxCell id="CT8DA7uSwMBzFHw84zYH-5" style="edgeStyle=orthogonalEdgeStyle;rounded=0;orthogonalLoop=1;jettySize=auto;html=1;exitX=0.9;exitY=0.399;exitDx=0;exitDy=0;exitPerimeter=0;strokeWidth=2;strokeColor=default;align=center;verticalAlign=middle;fontFamily=Helvetica;fontSize=11;fontColor=default;labelBackgroundColor=default;endArrow=blockThin;endFill=1;" edge="1" parent="1">
          <mxGeometry relative="1" as="geometry">
            <Array as="points" />
            <mxPoint x="172.07000000000005" y="110.53999999999996" as="sourcePoint" />
            <mxPoint x="200" y="110" as="targetPoint" />
          </mxGeometry>
        </mxCell>
        <mxCell id="CT8DA7uSwMBzFHw84zYH-6" value="T&lt;sub&gt;0&lt;/sub&gt;, F&lt;sub&gt;A0&lt;/sub&gt;" style="text;html=1;align=center;verticalAlign=middle;resizable=0;points=[];autosize=1;strokeColor=none;fillColor=none;fontFamily=IBM Plex sans;" vertex="1" parent="1">
          <mxGeometry x="30" y="40" width="60" height="30" as="geometry" />
        </mxCell>
        <mxCell id="CT8DA7uSwMBzFHw84zYH-7" value="T, X" style="text;html=1;align=center;verticalAlign=middle;resizable=0;points=[];autosize=1;strokeColor=none;fillColor=none;fontFamily=IBM Plex sans;" vertex="1" parent="1">
          <mxGeometry x="190" y="40" width="40" height="30" as="geometry" />
        </mxCell>
        <mxCell id="CT8DA7uSwMBzFHw84zYH-8" value="T&lt;sub&gt;a1&lt;/sub&gt;,&amp;nbsp;&lt;span style=&quot;font-family: &amp;quot;Source Sans Pro&amp;quot;, Roboto, &amp;quot;San Francisco&amp;quot;, &amp;quot;Segoe UI&amp;quot;, sans-serif; text-wrap: wrap; background-color: rgb(255, 255, 255);&quot;&gt;&lt;font style=&quot;font-size: 12px;&quot;&gt;ṁ&lt;/font&gt;&lt;/span&gt;&lt;sub&gt;c&lt;/sub&gt;" style="text;html=1;align=center;verticalAlign=middle;resizable=0;points=[];autosize=1;strokeColor=none;fillColor=none;fontFamily=IBM Plex sans;" vertex="1" parent="1">
          <mxGeometry x="30" y="110" width="60" height="30" as="geometry" />
        </mxCell>
        <mxCell id="CT8DA7uSwMBzFHw84zYH-9" value="T&lt;sub&gt;a2&lt;/sub&gt;" style="text;html=1;align=center;verticalAlign=middle;resizable=0;points=[];autosize=1;strokeColor=none;fillColor=none;fontFamily=IBM Plex sans;" vertex="1" parent="1">
          <mxGeometry x="190" y="110" width="40" height="30" as="geometry" />
        </mxCell>
      </root>
    </mxGraphModel>
  </diagram>
</mxfile>
